<?xml version="1.0" standalone="no"?>
<!DOCTYPE svg PUBLIC "-//W3C//DTD SVG 20010904//EN"
 "http://www.w3.org/TR/2001/REC-SVG-20010904/DTD/svg10.dtd">
<svg version="1.0" xmlns="http://www.w3.org/2000/svg"
 width="348.000000pt" height="167.000000pt" viewBox="0 0 348.000000 167.000000"
 preserveAspectRatio="xMidYMid meet">

<g transform="translate(0.000000,167.000000) scale(0.100000,-0.100000)"
fill="#000000" stroke="none">
<path d="M983 1474 c-19 -8 -31 -58 -58 -244 -32 -222 -39 -210 128 -203 110
5 119 7 134 29 14 22 14 26 -1 49 -15 23 -22 25 -97 25 -79 0 -81 1 -75 23 3
12 6 28 6 35 0 8 15 12 43 12 45 0 77 21 77 52 0 24 -34 48 -68 48 -34 0 -38
10 -26 58 6 20 12 22 68 22 35 0 67 5 74 12 18 18 15 45 -8 68 -17 17 -33 20
-102 19 -46 0 -88 -3 -95 -5z"/>
<path d="M1516 1437 c-31 -22 -61 -408 -34 -435 18 -18 45 -15 68 8 15 15 20
34 21 78 0 31 6 118 13 192 12 120 12 137 -2 153 -18 20 -41 22 -66 4z"/>
<path d="M275 1377 c-52 -55 -80 -138 -96 -286 -10 -89 -10 -113 1 -126 15
-18 64 -20 77 -2 6 6 15 57 21 112 12 115 34 193 62 227 l19 23 1 -82 c0 -73
2 -84 21 -93 40 -22 66 -5 83 53 16 54 41 97 56 97 16 0 22 -105 10 -208 -12
-115 -8 -132 40 -132 47 0 53 18 58 184 5 172 -2 211 -49 251 -37 30 -71 32
-110 4 l-29 -20 -26 20 c-16 12 -41 21 -62 21 -29 0 -43 -8 -77 -43z"/>
<path d="M0 400 l0 -400 1740 0 1740 0 0 400 0 400 -1740 0 -1740 0 0 -400z
m2715 224 c23 -9 37 -51 25 -74 -8 -15 -24 -20 -78 -22 l-67 -3 -3 -37 c-3
-37 -3 -38 32 -38 27 0 40 -6 52 -25 15 -23 15 -27 0 -50 -13 -20 -25 -25 -60
-25 -45 0 -56 -10 -56 -51 0 -17 8 -19 78 -19 47 0 83 -5 90 -12 16 -16 15
-63 0 -75 -7 -6 -66 -13 -130 -16 -157 -7 -155 -10 -133 149 26 182 43 275 56
290 12 15 161 20 194 8z m575 -14 c23 -23 26 -50 8 -68 -7 -7 -39 -12 -74 -12
-56 0 -62 -2 -68 -22 -12 -48 -8 -58 26 -58 34 0 68 -24 68 -48 0 -31 -32 -52
-77 -52 -28 0 -43 -4 -43 -12 0 -7 -3 -23 -6 -36 -6 -21 -4 -22 75 -22 75 0
82 -2 97 -25 15 -23 15 -27 1 -49 -15 -22 -24 -24 -134 -29 -167 -7 -160 -19
-128 203 27 186 39 236 58 244 7 2 49 5 95 5 69 1 85 -2 102 -19z m-1297 -49
c11 -17 11 -40 1 -143 -7 -67 -11 -124 -9 -126 2 -2 39 1 81 6 51 7 84 7 96 1
21 -11 25 -61 6 -77 -7 -6 -56 -18 -108 -27 -158 -29 -156 -29 -172 -7 -21 31
11 359 37 379 26 19 52 16 68 -6z"/>
</g>
</svg>
